<svg width="89" height="89" xmlns="http://www.w3.org/2000/svg" xmlns:xlink="http://www.w3.org/1999/xlink" xmlns:svgjs="http://svgjs.com/svgjs" viewBox="0 0.113 89 88.774" fill="#a4c58c"><svg xmlns="http://www.w3.org/2000/svg" width="89" height="89" viewBox="2.148 1.249 87.723 87.5"><path paint-order="stroke fill markers" fill-rule="evenodd" d="M59.574 1.249h.977c.156.188.17.053.39.196.296.19.439.628.684.879.103 5.794-1.508 9.562-3.906 12.792-.501.675-.997 1.454-1.66 1.954-.889.668-1.774 1.372-2.735 1.953-.418.252-.998.296-1.27.683-.247.353-.288.786-.488 1.172-.723 1.392-1.315 2.812-2.05 4.297-1.546 3.122-3.224 6.584-4.297 10.059h.195c.71-1.053 1.917-1.971 2.93-2.734.71-.536 1.33-1.323 2.05-1.856 1.842-1.364 3.692-2.565 5.664-3.809 1.3-.818 2.466-2.125 4.493-2.148.486.59.997.685 1.074 1.758-.595.813-.71 1.898-1.172 2.831-1.267 2.556-2.27 5.416-3.418 8.106h.293c.38-.772 2.1-1.802 2.832-2.344 2.168-1.605 4.084-3.667 6.25-5.273.722-.536 2.839-1.853 3.125-2.637.164-.435-.305-1.857-.098-2.734.384-1.623.79-3.064 1.563-4.297 1.363-2.173 3.642-3.759 6.347-4.59 3.826-1.175 8.427 1.405 9.864 3.32.806 1.076 1.679 2.338 2.148 3.712 2.201 6.442-3.14 11.615-7.617 12.89-1.761.501-3.577-.137-5.176-.195-.681.863-2.485 1.6-2.93 2.539 1.624 0 3.459.586 4.883.976 3.827 1.048 9.019 1.858 10.84 4.785.588.946.39 2.882.39 4.395 0 5.008.444 7.116-3.124 8.789.088 4.306-1.241 8.16-2.54 11.23-3.922 9.277-11.03 18.058-21.386 20.801H29.301c-1.28-.38-2.718-.782-3.907-1.367-8.413-4.141-14.646-11.496-18.066-20.606-.822-2.189-1.186-4.589-1.758-7.03l-.195-3.028-.781-.39c-.695-.488-1.505-1.224-1.954-1.954-.792-1.288-.39-5.473-.39-7.52v-2.539c.422-1.381 1.608-2.122 2.734-2.831 3.458-2.179 8.061-2.79 12.696-3.907 1.665-.4 3.359-.299 4.98-.683.618-.146 1.568.087 1.855-.39-.916-1.016-1.232-2.72-1.757-4.102-1.171-3.078-1.784-6.501-2.735-9.962l-.195-1.855c-.49-2.03-.918-3.746 1.855-3.71.53.445 1.409.335 2.149.586 1.79.604 3.654 1.297 5.273 2.147 6.16 3.236 10.362 8.121 11.914 16.016h.684c2.662-4.74.42-11.746-1.27-15.625-6.657-.196-11.288-3.64-14.062-7.812-.88-1.324-2.246-2.997-2.246-5.078.275-.31.325-.641.683-.879.472-.381 1.477-.311 2.344-.293 1.771.037 3.634.375 5.078.781 4.78 1.345 8.407 3.196 10.059 7.617.31.828.385 1.865.586 2.735v1.074c.525 1.318 1.423 2.76 1.953 4.2.249.674.526 3.133.977 3.417.079-.517.394-.889.585-1.27.414-.823.553-1.628.977-2.441.528-1.011 1.341-2.188 1.758-3.223v-2.245c.466-2.037.497-4.075 1.172-5.86 1.184-3.132 3.213-5.925 5.761-7.715.599-.42 1.394-.884 2.051-1.172.514-.224 1.083-.242 1.465-.586zM58.11 5.351c-.562.835-1.733 1.238-2.344 2.051-1.607 2.137-3.28 4.762-3.32 8.398h.195c.615-.804 1.728-1.231 2.344-2.05 1.584-2.107 3.272-4.853 3.32-8.399h-.195zM39.554 16.776c-.153-4.88-6.423-7.08-11.23-7.617v.098h-.098v.196c.311.25.352.646.586.976.47.662 1.061 1.288 1.563 1.953 1.456 1.93 5.898 4.24 9.18 4.394zm36.915 2.247c.164 1.01.9 1.886 1.367 2.636 1.47 2.368 2.875 4.039 5.176 5.567.492.327 2.48 1.77 2.93 1.367.911-1.121.803-3.96.292-5.371-.973-2.69-2.254-3.831-5.176-4.59-.529-.137-1.734-.394-2.539-.195-.664.164-1.368.475-2.05.586zm-53.516 1.562c.031 1.893.864 4.714 1.367 6.348 1.6 5.197 2.996 10.082 6.64 13.184.61.518 1.152 1.357 1.856 1.757.427.243.93.165 1.367.39.533.275.913.797 1.563.977v-.195c-.672-.85-.935-2.056-1.465-3.027-1.203-2.205-2.647-4.417-4.102-6.445-.87-1.214-2.926-2.823-2.93-4.688.607-.653.705-1.097 2.052-1.074 2.59 2.601 4.752 5.796 6.738 8.984.434.696 1.65 3.626 2.148 3.906v-2.929c-.266-.437-.048-1.073-.195-1.66-.395-1.585-.691-3.315-1.367-4.688-2.075-4.212-5.137-6.92-9.277-9.082-1.214-.634-2.755-1.668-4.395-1.758zm60.645 10.547c-1.006-.184-1.821-.96-2.54-1.465-1.915-1.344-3.627-2.894-4.98-4.785-.465-.65-1.717-3.452-2.344-3.614-.289 1.028-.878 1.947-1.172 3.223-.183.796.054 1.91.196 2.442.774 2.9 1.892 4.214 4.59 5.176.71.253 2.082.658 3.222.39 1.143-.268 2.06-.796 3.028-1.074v-.293zm-27.247-.879c-.966.983-2.385 1.631-3.515 2.442-2.79 2-5.637 4.886-7.617 7.714-1.13 1.614-2.3 3.347-2.344 6.055h.097v.098c7.623-1.456 8.776-4.843 11.426-11.133.693-1.643 1.683-3.422 2.149-5.176h-.196zM44.437 51.25c1.723.021 3.93.237 5.47-.098.684-.148 1.61.193 2.148-.097.275-.148.526-.592.78-.781 1.184-.878 2.26-1.875 3.419-2.735 3.4-2.523 6.554-5.291 9.96-7.812.402-.297 1.492-1.086 1.758-1.465.216-.306.271-.689.586-.879.344-.207.759-.171 1.075-.39.869-.604 1.592-1.516 2.441-2.149.49-.365 1.337-.765 1.563-1.367-.984-.34-2.385-2.184-2.832-3.125-1.492.871-2.64 2.308-4.004 3.32-4.11 3.049-7.82 6.513-11.914 9.57-1.663 1.242-3.016 2.994-4.786 4.102-1.791 1.122-3.702 1.43-5.859 2.246.166.462.2.997.195 1.66zM25.2 39.726c-.466.275-1.13.048-1.758.195-1.341.315-2.853.233-4.297.587-3.342.817-6.83 1.26-9.765 2.343-1.18.435-3.522.85-3.907 1.953-.406.749 2.813 2.472 4.004 2.149 2.354-.64 5.133-.962 7.715-1.563h.977c1.738-.402 3.918-.378 5.664-.781h1.074c1.158-.266 2.685-.32 3.809-.586.672-.16 1.19.121 1.562-.293-1.278-.76-3.043-2.717-3.808-4.004h-1.27zm45.117.683c-.57.57-1.298.98-1.953 1.465-.61.452-1.148 1.11-1.758 1.563-.408.303-.946.498-1.172.976h1.075c.823.504 3.783.298 4.98.587 2.203.53 4.62.544 6.836 1.171 1.189.337 2.642.814 3.809 1.074 1.087.243 4.395-1.517 4.492-2.441l-.684-.781c-1.437-.88-3.095-.986-4.883-1.563-3.21-1.036-7.078-1.59-10.742-2.05zm-8.398 6.738c-.556.527-1.235.908-1.856 1.368-.442.328-.827.844-1.27 1.172-.466.346-1.207.631-1.464 1.172h2.05c.816-.488 3.963-.122 5.177-.39 1.167-.26 2.527-.097 3.808-.391 2.23-.512 4.716-.628 6.934-1.075v-.097l-.293-.098c-.777-.47-2.287-.243-3.32-.489-2.233-.53-4.986-.461-7.325-.976-.87-.192-1.729.047-2.441-.196zm-37.793.587c-.46.285-1.118.05-1.758.195-1.833.417-4.347.758-6.348.781v.196l6.543.976c.545-.809 1.978-1.4 2.344-2.148h-.781zm8.691.585c-.328.21-.7.073-1.172.196-1.084.283-2.305.536-3.32.977-2.311 1.002-4.178 2.664-5.176 4.98-.305.709-.197 1.321-.39 2.149-.175.743-.44 2.392-.196 3.418.196.822.362 1.98.586 2.734.429 1.443.662 2.694 1.172 3.906.204.485.132 1.035.586 1.27.459-1.455 1.72-2.733 2.54-3.907 2.396-3.436 4.813-6.85 8.202-9.277a13.694 13.694 0 0 1 2.93-1.563c.695-.26 1.294-.301 1.855-.683l.88-1.074c.054-1.139-.274-2.773-1.27-2.832-.819.645-2.792 1.127-3.809 1.66-2.326 1.22-4.77 2.995-6.25 5.078-1.001 1.409-.841 3.693-3.222 3.711-.6-.683-1.094-.648-1.075-2.05.491-.559.584-1.505.977-2.15.49-.803 1.093-1.587 1.66-2.343.575-.765 2.234-2.263 3.027-2.832.58-.415 1.63-.721 1.954-1.368h-.489zm-27.441.587c-.01 1.381-.14 3.082.097 4.296 2.045 1.155 4.194 1.884 6.641 2.734 1.186.413 2.494.46 3.613.782.456.13 3.594.505 3.614.488.355-.425.115-.998.293-1.66.244-.91.662-1.839.879-2.734h-.098v-.098c-1.418-.026-2.886-.365-4.102-.683l-1.66-.196c-2.035-.55-4.221-.845-6.152-1.562-1.027-.382-2.066-1.153-3.125-1.367zm81.054 0c-.37.337-.772.338-1.269.586-1.98.983-4.494 1.469-6.836 2.148-.595.173-.944.033-1.562.195-1.992.523-4.46.669-6.543 1.172l-2.832.195c-1.45.338-3.407.25-4.883.587h-1.856c-.856.19-2.135.091-3.027.292h-1.856c-.793.176-2.015-.104-2.93.098-2.64.584-7.023.192-10.058.195-.899 1.12-2.231 1.272-3.613 1.953-.737.364-1.414.908-2.05 1.368-.46.33-1.16.606-1.368 1.172h2.734c.655.408 2.077-.083 2.93.097.876.185 2.183.098 3.223.098h5.761c.854-.01 2.219-.017 3.028-.195 1.582-.35 3.378.115 4.785-.196.996-.22 2.104-.011 2.93-.195h1.66c1.469-.33 3.354-.255 4.785-.586 1.406-.325 2.73-.057 4.101-.39 2.495-.607 5.3-.863 7.618-1.564.496-.149.774-.042 1.27-.194 1.543-.474 3.16-1.092 4.491-1.758.589-.295 1.232-.343 1.465-.977.314-.495.109-3.272.098-4.1h-.196zm-77.734 9.18c-.345 1.073.297 3.15.586 4.101.417 1.372.495 2.542.977 3.808.737 1.938 1.792 3.774 2.734 5.47 3.594 6.467 8.998 11.83 16.7 14.16h32.616c8.49-2.59 14.06-8.72 17.774-16.114 1.611-3.208 2.99-6.834 3.32-11.328h-.097v-.098c-2.662 1.116-5.972 1.408-8.985 2.149-1.2.295-2.2.104-3.418.39-2.492.586-5.512.392-8.105.977h-1.563c-1.404.31-3.305.255-4.785.39H53.91c-1.729.38-4.456.196-6.445.196l-9.278-.098c-.762-.168-1.948.097-2.832-.098-.75-.165-1.633-.193-2.539-.195-.55.96-1.423 1.747-2.05 2.637-.942 1.336-1.665 2.697-2.54 4.101-.33.532-.866 1.109-1.171 1.66-.72 1.3-.863 2.951-2.93 2.93-1.947-1.971-2.949-5.729-3.906-8.69-.283-.875-.293-3.3-.684-3.907v-.098c-2.017-.006-4.612-.676-6.348-1.172-1.597-.456-3.124-.538-4.492-1.172zm63.379 5.663h.977c.156.187.17.053.39.195.296.191.439.63.684.88.034 1.955-.95 4.11-1.563 5.566-2.054 4.879-4.112 8.604-8.691 10.938-1.216.619-3.96 1.669-6.152 1.171-2.15-.488-4.11-.875-5.86-1.758-.592-.298-1.234-.968-1.855-1.172h-2.149c-2.79-.623-8.145-.586-8.105-3.808.606-.653.704-1.097 2.05-1.074.98 1.142 5.993 2.094 8.301 1.66.535-1.437 2.97-2.925 4.2-3.808 3.78-2.715 8.206-4.792 12.695-6.837 1.33-.605 2.73-1.01 4.004-1.562.44-.19.767-.107 1.074-.39zm-2.05 4.102c-.847.72-2.292.853-3.321 1.367-2.821 1.41-5.734 2.697-8.3 4.297-1.033.643-2.544 1.169-3.223 2.149h.488c.41-.307.994-.22 1.562-.391 1.197-.36 2.147-.874 3.614-.782.208.276.53.626.78.88.032.7-.038.962-.194 1.562-1.5.91-3.635 1.395-5.567 1.855v.195c.723.034 1.427.226 2.05.391 1.181.314 2.84-.12 3.614-.39 3.56-1.24 5.226-3.387 6.836-6.543.506-.993 1.007-2.16 1.465-3.223.126-.292.388-1.156.293-1.27v-.097h-.098z"/></svg></svg>