<svg width="87" height="73" xmlns="http://www.w3.org/2000/svg" xmlns:xlink="http://www.w3.org/1999/xlink" xmlns:svgjs="http://svgjs.com/svgjs" viewBox="0.635 0 85.73 73" fill="#a4c58c"><svg xmlns="http://www.w3.org/2000/svg" width="87" height="73" viewBox="1.708 1.061 84.519 71.969"><path paint-order="stroke fill markers" fill-rule="evenodd" d="M43.512 1.062c1.388-.03 2.036.608 2.93 1.074 1.503.785 3.028 1.483 4.491 2.246 4.016 2.096 8.09 3.868 12.11 5.957 1.53.795 3.117 1.528 4.687 2.344.47.243 1.063.72 1.563.879h15.82c.238.278.567.363.781.683.491.623.293 2.245.293 3.32v51.466c0 1.48.207 3.013-.683 3.613-.81.637-3.352.293-4.688.293H6.793c-1.611 0-4.173.347-4.785-.684-.531-.894-.196-3.221-.196-4.492V56.433 14.636a54 54 0 0 1 1.075-1.074h15.82c.368-.12.825-.503 1.172-.684 1.118-.582 2.243-1.1 3.32-1.66 3.312-1.725 6.69-3.277 9.961-4.98 2.409-1.255 4.859-2.38 7.227-3.613.972-.507 2.36-.824 3.125-1.563zm.293 3.32c-.711.826-2.94 1.497-4.004 2.05-3.149 1.638-6.424 3.242-9.57 4.884-.746.389-4.12 1.765-4.395 2.246h36.328v-.195c-1.188-.158-3.511-1.683-4.59-2.246-3.241-1.692-6.522-3.1-9.766-4.786-1.052-.547-2.78-1.793-4.003-1.953zM4.937 16.687v53.124h78.125V16.687H4.937zm56.641 9.375c6.035-.072 9.016 2.42 11.035 6.348.816 1.586 1.546 4.519.879 6.933-.362 1.31-.877 2.667-1.562 3.71-.337.514-1.13 1.012-1.368 1.564v17.87c-.362.373-.702.713-1.074 1.074-.551-.001-1.004.013-1.367-.194l-.977-1.075-2.93-2.832c-.471-.472-.844-1.26-1.66-1.367l-5.175 5.274c-.364.206-.816.194-1.367.194-.157-.186-.17-.052-.391-.194-.296-.191-.439-.629-.684-.88v-17.87c-2.146-1.513-4.073-6.971-2.734-10.743.86-2.422 2.285-4.49 4.2-5.86.9-.644 2.118-1.171 3.222-1.562.594-.21 1.46-.067 1.953-.39zm-46.191 3.125h29.101c.231.252.71.384.879.684.45.798.076 1.783-.488 2.148-.81.644-5.311.293-6.836.293H20.074c-2.703 0-5.769.838-5.762-2.051.173-.144.15-.318.293-.488.209-.247.575-.338.782-.586zm46.386 0l-2.148.586c-1.91.939-3.515 2.532-4.297 4.59-1.344 3.535.464 6.535 2.148 8.3l.489.684c.434.262 1.356.55 2.05.88.777.365 2.358.917 3.711.585 2.912-.714 4.82-1.929 6.055-4.297 2.664-5.111-1.172-9.912-5.078-11.133-.839-.262-1.873-.206-2.93-.195zm-46.386 6.25h19.726c1.121.373 1.43 2.138.39 2.832-.71.57-3.869.293-5.175.293H18.805c-2.42 0-4.505.478-4.493-2.05.362-.373.702-.713 1.075-1.075zm0 6.25h19.726c.157.187.17.053.39.195.297.19.44.628.684.879.033.908-.156 1.42-.683 1.758-.71.57-3.87.293-5.176.293H18.805c-2.42 0-4.505.478-4.493-2.051.246-.25.388-.688.684-.879.22-.142.234-.009.39-.195zm42.675 5.273v11.133h.196c.674-1.04 1.863-1.864 2.734-2.734.372-.372.747-.975 1.27-1.172h.976c.923.904 1.919 1.723 2.832 2.636.414.415.77 1.056 1.367 1.27V46.96c-1.635.255-3.494 1.525-5.859.977-1.1-.256-2.569-.871-3.516-.977zm-38.867 9.766c-.724-.014-1.422-.515-1.758-.39-.242.283-.353.79-.683.976-1.196.676-1.904-.3-2.442-.879-.095-2.933 1.103-5.145 2.344-6.836.959-1.306 2.438-.438 2.93.683.674-.213 1.108-.276 1.855-.097.19.286.573.538.684.879v4.687h.195v-.195c.507-.697.343-1.57 1.074-2.05.288-.24.63-.296 1.172-.294.496.444.858.513 1.172 1.172l1.465-.976c.46-.202.992-.22 1.465-.39.238-.643.508-1.145 1.367-1.173.168-.103.582-.053.781.098.508.16.86.607.88 1.269.485 1.035-1.23 2.915-2.052 3.125-.544.14-.884-.255-1.367 0-.677.358-1.228 1.192-1.953 1.563-.539.276-1.335.164-1.855.488-.863.927-.969 2.074-2.832 2.051-.145-.17-.318-.15-.489-.293-.917-.765-1.755-1.956-1.953-3.418z"/></svg></svg>