<svg width="17" height="17" xmlns="http://www.w3.org/2000/svg" xmlns:xlink="http://www.w3.org/1999/xlink" xmlns:svgjs="http://svgjs.com/svgjs" viewBox="0 0.005 17 16.991" fill="#7eb252"><svg xmlns="http://www.w3.org/2000/svg" width="17" height="17" viewBox="1.35 1.22 14.873 14.865"><path paint-order="stroke fill markers" fill-rule="evenodd" d="M3.826 1.22c1.044-.01 1.354.514 1.862 1.022l1.588 1.589c.297.296.469.433.602.912.028.098.073.325.037.475-.122.497-.407.735-.712 1.04l-.53.548c-.118.119-.476.385-.51.547.08.086.116.211.182.31.133.2.293.39.438.584.16.216.388.391.548.603.407.54.992 1.09 1.533 1.497.078.059.14.16.219.219.22.164.426.32.657.474.118.079.228.2.402.219.158-.24.435-.436.638-.638.423-.423.767-.948 1.442-1.113.257-.064.55.04.694.108.612.296 1.005.841 1.46 1.296l1.15 1.151c.177.177.424.34.53.584.064.148.107.334.146.492.045.188.011.518-.037.657-.155.452-.686.833-1.004 1.15-.274.275-.508.586-.876.768-.29.142-.65.206-.986.291-.517.132-1.346.088-1.825-.036l-.31-.037c-.331-.095-.691-.156-1.004-.292a16.017 16.017 0 0 1-1.387-.657c-.25-.138-.498-.335-.749-.474-2.15-1.199-4.059-3.194-5.257-5.35-.128-.229-.299-.465-.438-.692-.184-.302-.295-.63-.438-.968-.518-1.227-.833-3.13-.146-4.453.16-.308.475-.53.712-.767l.785-.803c.089-.065.212-.14.31-.183.091-.039.206-.015.274-.073zm.11.803c-.064.05-.156.063-.22.11l-.84.858c-.14.14-.352.283-.437.474-.71 1.598.017 3.675.693 4.782.521.853 1.06 1.668 1.643 2.447.093.122.236.224.329.346.164.218.349.438.566.603.066.05.1.15.164.2.269.215.494.49.766.694.32.24.625.502.95.73.615.434 1.275.8 1.953 1.169.868.471 2.384 1.105 3.778.73.218-.059.395-.062.584-.146.25-.112.404-.313.584-.493l.876-.859c.032-.043.038-.09.073-.127.005-.691-.319-.775-.657-1.113-.115-.116-.213-.25-.328-.365-.36-.36-.736-.7-1.095-1.059-.17-.17-.527-.665-.785-.694-.23-.14-.582.272-.676.365l-1.095 1.077c-.105.106-.307.387-.456.42-.103-.075-.28-.055-.402-.109a4.352 4.352 0 0 1-.693-.402c-1.048-.736-2.14-1.754-2.903-2.775C5.915 8.36 5.36 7.878 5.25 7.08c.24-.158.47-.47.675-.676.35-.35.714-.683 1.04-1.058h.037c.107-.126.123-.315.11-.512-.054-.043-.068-.108-.11-.164-.12-.163-.345-.344-.493-.492L5.05 2.753c-.303-.303-.51-.728-1.113-.73z"/></svg></svg>